<svg version="1.1" xmlns="http://www.w3.org/2000/svg" xmlns:xlink="http://www.w3.org/1999/xlink" width="646" height="430.00000000000006"><style xmlns="http://www.w3.org/1999/xhtml"></style><defs/><g transform="translate(0,0)"><g><rect fill="#FFFFFF" stroke="none" x="0" y="0" width="646" height="430.00000000000006"/></g><g transform="translate(0,0) matrix(1,0,0,1,80,20)"><g><g transform="translate(0,0) scale(5.4,3.9000000000000004)"><g><path fill="#f4cccc" stroke="none" d="M 100 50 A 50 50 0 1 0 99.99997500000208 50.04999999166668 Z"/><g transform="scale(0.18518518518518517,0.2564102564102564)"><path fill="none" stroke="#333333" d="M 270 0 M 270 0 C 419.11686899999995 0 540 87.30448350000002 540 195.00000000000003 C 540 302.69551650000005 419.11686899999995 390.00000000000006 270 390.00000000000006 C 120.88313100000002 390.00000000000006 0 302.69551650000005 0 195.00000000000003 C 0 87.30448350000002 120.88313100000002 0 270 0 Z" stroke-miterlimit="10" stroke-width="2"/></g></g></g></g></g><g transform="matrix(1,0,0,1,90,28)"><g><g><rect fill="rgb(0,0,0)" stroke="none" x="0" y="0" width="521" height="23" fill-opacity="0"/></g></g><g><g><rect fill="rgb(0,0,0)" stroke="none" x="0" y="0" width="521" height="23" fill-opacity="0"/></g></g><g><g><rect fill="rgb(0,0,0)" stroke="none" x="225.48333740234375" y="7.366668701171875" width="70" height="14" fill-opacity="0"/></g></g><g><g><rect fill="rgb(0,0,0)" stroke="none" x="225.48333740234375" y="7.366668701171875" width="70" height="14" fill-opacity="0"/></g></g><g><g><rect fill="rgb(0,0,0)" stroke="none" x="225.48333740234375" y="0.366668701171875" width="70" height="22" fill-opacity="0"/></g><text fill="rgb(204, 0, 0)" stroke="none" font-family="&quot;Arial&quot;" font-size="20px" font-style="normal" font-weight="700" text-decoration="" line-height="22.75px" x="225.48333740234375" y="19.366668701171875">Graphs</text></g><g><g/></g></g><g transform="translate(0,0) matrix(1,0,0,1,140,90)"><g><g transform="translate(0,0) scale(4.1,2.9)"><g><path fill="#d9ead3" stroke="none" d="M 100 50 A 50 50 0 1 0 99.99997500000208 50.04999999166668 Z"/><g transform="scale(0.24390243902439027,0.3448275862068966)"><path fill="none" stroke="#333333" d="M 204.99999999999997 0 M 204.99999999999997 0 C 318.21836349999995 0 409.99999999999994 64.91871850000001 409.99999999999994 145 C 409.99999999999994 225.0812815 318.21836349999995 290 204.99999999999997 290 C 91.78163649999999 290 0 225.0812815 0 145 C 0 64.91871850000001 91.78163649999999 0 204.99999999999997 0 Z" stroke-miterlimit="10" stroke-width="2"/></g></g></g></g></g><g transform="matrix(1,0,0,1,150,98)"><g><g><rect fill="rgb(0,0,0)" stroke="none" x="0" y="0" width="391" height="27" fill-opacity="0"/></g></g><g><g><rect fill="rgb(0,0,0)" stroke="none" x="0" y="0" width="391" height="27" fill-opacity="0"/></g></g><g><g><rect fill="rgb(0,0,0)" stroke="none" x="164.48333740234375" y="11" width="62" height="14" fill-opacity="0"/></g></g><g><g><rect fill="rgb(0,0,0)" stroke="none" x="164.48333740234375" y="11" width="62" height="14" fill-opacity="0"/></g></g><g><g><rect fill="rgb(0,0,0)" stroke="none" x="164.48333740234375" y="0" width="62" height="27" fill-opacity="0"/></g><text fill="rgb(56, 118, 29)" stroke="none" font-family="&quot;Arial&quot;" font-size="24px" font-style="normal" font-weight="700" text-decoration="" line-height="27px" x="164.48333740234375" y="23">Trees</text></g><g><g/></g></g><g transform="translate(0,0) matrix(1,0,0,1,210,160)"><g><g transform="translate(0,0) scale(2.7,1.9)"><g><path fill="#d0e0e3" stroke="none" d="M 100 50 A 50 50 0 1 0 99.99997500000208 50.04999999166668 Z"/><g transform="scale(0.37037037037037035,0.5263157894736842)"><path fill="none" stroke="#333333" d="M 135 0 M 135 0 C 209.55843449999998 0 270 42.532953500000005 270 95 C 270 147.46704649999998 209.55843449999998 190 135 190 C 60.44156550000001 190 0 147.46704649999998 0 95 C 0 42.532953500000005 60.44156550000001 0 135 0 Z" stroke-miterlimit="10" stroke-width="2"/></g></g></g></g></g><g transform="matrix(1,0,0,1,220,168)"><g><g><rect fill="rgb(0,0,0)" stroke="none" x="0" y="0" width="251" height="23" fill-opacity="0"/></g></g><g><g><rect fill="rgb(0,0,0)" stroke="none" x="0" y="0" width="251" height="23" fill-opacity="0"/></g></g><g><g><rect fill="rgb(0,0,0)" stroke="none" x="65.48333740234375" y="7.366668701171875" width="120" height="14" fill-opacity="0"/></g></g><g><g><rect fill="rgb(0,0,0)" stroke="none" x="65.48333740234375" y="7.366668701171875" width="120" height="14" fill-opacity="0"/></g></g><g><g><rect fill="rgb(0,0,0)" stroke="none" x="65.48333740234375" y="0.366668701171875" width="120" height="22" fill-opacity="0"/></g><text fill="rgb(12, 52, 61)" stroke="none" font-family="&quot;Arial&quot;" font-size="20px" font-style="normal" font-weight="700" text-decoration="" line-height="22.75px" x="65.48333740234375" y="19.366668701171875">Binary</text><text fill="rgb(12, 52, 61)" stroke="none" font-family="&quot;Arial&quot;" font-size="20px" font-style="normal" font-weight="700" text-decoration="" line-height="22.75px" x="133.48333740234375" y="19.366668701171875">Trees</text></g><g><g/></g></g><g transform="translate(0,0) matrix(1,0,0,1,270,217.5)"><g><g transform="translate(0,0) scale(1.6,1.2)"><g><path fill="#c27ba0" stroke="none" d="M 100 50 A 50 50 0 1 0 99.99997500000208 50.04999999166668 Z"/><g transform="scale(0.625,0.8333333333333334)"><path fill="none" stroke="#333333" d="M 80 0 M 80 0 C 124.18277599999999 0 160 26.862918 160 60 C 160 93.13708199999999 124.18277599999999 120 80 120 C 35.817224 120 0 93.13708199999999 0 60 C 0 26.862918 35.817224 0 80 0 Z" stroke-miterlimit="10" stroke-width="2"/></g></g></g></g></g><g transform="matrix(1,0,0,1,280,226)"><g><g><rect fill="rgb(0,0,0)" stroke="none" x="0" y="0" width="141" height="23" fill-opacity="0"/></g></g><g><g><rect fill="rgb(0,0,0)" stroke="none" x="0" y="0" width="141" height="23" fill-opacity="0"/></g></g><g><g><rect fill="rgb(0,0,0)" stroke="none" x="50.98333740234375" y="7.366668701171875" width="39" height="14" fill-opacity="0"/></g></g><g><g><rect fill="rgb(0,0,0)" stroke="none" x="50.98333740234375" y="7.366668701171875" width="39" height="14" fill-opacity="0"/></g></g><g><g><rect fill="rgb(0,0,0)" stroke="none" x="50.98333740234375" y="0.366668701171875" width="39" height="22" fill-opacity="0"/></g><text fill="rgb(76, 17, 48)" stroke="none" font-family="&quot;Arial&quot;" font-size="20px" font-style="normal" font-weight="700" text-decoration="" line-height="22.75px" x="50.98333740234375" y="19.366668701171875">BST</text></g><g><g/></g></g></g></svg>