<?xml version="1.0" standalone="no"?>
<!DOCTYPE svg PUBLIC "-//W3C//DTD SVG 1.1//EN" "http://www.w3.org/Graphics/SVG/1.1/DTD/svg11.dtd">
<svg xmlns:xlink="http://www.w3.org/1999/xlink" width="50.564ex" height="12.843ex" style="vertical-align: -5.838ex;" viewBox="0 -3015.9 21770.6 5529.4" xmlns="http://www.w3.org/2000/svg">
<defs>
<path stroke-width="10" id="E1-MJMATHI-57" d="M436 683Q450 683 486 682T553 680Q604 680 638 681T677 682Q695 682 695 674Q695 670 692 659Q687 641 683 639T661 637Q636 636 621 632T600 624T597 615Q597 603 613 377T629 138L631 141Q633 144 637 151T649 170T666 200T690 241T720 295T759 362Q863 546 877 572T892 604Q892 619 873 628T831 637Q817 637 817 647Q817 650 819 660Q823 676 825 679T839 682Q842 682 856 682T895 682T949 681Q1015 681 1034 683Q1048 683 1048 672Q1048 666 1045 655T1038 640T1028 637Q1006 637 988 631T958 617T939 600T927 584L923 578L754 282Q586 -14 585 -15Q579 -22 561 -22Q546 -22 542 -17Q539 -14 523 229T506 480L494 462Q472 425 366 239Q222 -13 220 -15T215 -19Q210 -22 197 -22Q178 -22 176 -15Q176 -12 154 304T131 622Q129 631 121 633T82 637H58Q51 644 51 648Q52 671 64 683H76Q118 680 176 680Q301 680 313 683H323Q329 677 329 674T327 656Q322 641 318 637H297Q236 634 232 620Q262 160 266 136L501 550L499 587Q496 629 489 632Q483 636 447 637Q428 637 422 639T416 648Q416 650 418 660Q419 664 420 669T421 676T424 680T428 682T436 683Z"></path>
<path stroke-width="10" id="E1-MJMAIN-3D" d="M56 347Q56 360 70 367H707Q722 359 722 347Q722 336 708 328L390 327H72Q56 332 56 347ZM56 153Q56 168 72 173H708Q722 163 722 153Q722 140 707 133H70Q56 140 56 153Z"></path>
<path stroke-width="10" id="E1-MJMAIN-5B" d="M118 -250V750H255V710H158V-210H255V-250H118Z"></path>
<path stroke-width="10" id="E1-MJMATHI-3C9" d="M495 384Q495 406 514 424T555 443Q574 443 589 425T604 364Q604 334 592 278T555 155T483 38T377 -11Q297 -11 267 66Q266 68 260 61Q201 -11 125 -11Q15 -11 15 139Q15 230 56 325T123 434Q135 441 147 436Q160 429 160 418Q160 406 140 379T94 306T62 208Q61 202 61 187Q61 124 85 100T143 76Q201 76 245 129L253 137V156Q258 297 317 297Q348 297 348 261Q348 243 338 213T318 158L308 135Q309 133 310 129T318 115T334 97T358 83T393 76Q456 76 501 148T546 274Q546 305 533 325T508 357T495 384Z"></path>
<path stroke-width="10" id="E1-MJMAIN-30" d="M96 585Q152 666 249 666Q297 666 345 640T423 548Q460 465 460 320Q460 165 417 83Q397 41 362 16T301 -15T250 -22Q224 -22 198 -16T137 16T82 83Q39 165 39 320Q39 494 96 585ZM321 597Q291 629 250 629Q208 629 178 597Q153 571 145 525T137 333Q137 175 145 125T181 46Q209 16 250 16Q290 16 318 46Q347 76 354 130T362 333Q362 478 354 524T321 597Z"></path>
<path stroke-width="10" id="E1-MJMAIN-31" d="M213 578L200 573Q186 568 160 563T102 556H83V602H102Q149 604 189 617T245 641T273 663Q275 666 285 666Q294 666 302 660V361L303 61Q310 54 315 52T339 48T401 46H427V0H416Q395 3 257 3Q121 3 100 0H88V46H114Q136 46 152 46T177 47T193 50T201 52T207 57T213 61V578Z"></path>
<path stroke-width="10" id="E1-MJMAIN-32" d="M109 429Q82 429 66 447T50 491Q50 562 103 614T235 666Q326 666 387 610T449 465Q449 422 429 383T381 315T301 241Q265 210 201 149L142 93L218 92Q375 92 385 97Q392 99 409 186V189H449V186Q448 183 436 95T421 3V0H50V19V31Q50 38 56 46T86 81Q115 113 136 137Q145 147 170 174T204 211T233 244T261 278T284 308T305 340T320 369T333 401T340 431T343 464Q343 527 309 573T212 619Q179 619 154 602T119 569T109 550Q109 549 114 549Q132 549 151 535T170 489Q170 464 154 447T109 429Z"></path>
<path stroke-width="10" id="E1-MJMAIN-33" d="M127 463Q100 463 85 480T69 524Q69 579 117 622T233 665Q268 665 277 664Q351 652 390 611T430 522Q430 470 396 421T302 350L299 348Q299 347 308 345T337 336T375 315Q457 262 457 175Q457 96 395 37T238 -22Q158 -22 100 21T42 130Q42 158 60 175T105 193Q133 193 151 175T169 130Q169 119 166 110T159 94T148 82T136 74T126 70T118 67L114 66Q165 21 238 21Q293 21 321 74Q338 107 338 175V195Q338 290 274 322Q259 328 213 329L171 330L168 332Q166 335 166 348Q166 366 174 366Q202 366 232 371Q266 376 294 413T322 525V533Q322 590 287 612Q265 626 240 626Q208 626 181 615T143 592T132 580H135Q138 579 143 578T153 573T165 566T175 555T183 540T186 520Q186 498 172 481T127 463Z"></path>
<path stroke-width="10" id="E1-MJMAIN-5D" d="M22 710V750H159V-250H22V-210H119V710H22Z"></path>
<path stroke-width="10" id="E1-MJSZ4-23A1" d="M319 -645V1154H666V1070H403V-645H319Z"></path>
<path stroke-width="10" id="E1-MJSZ4-23A3" d="M319 -644V1155H403V-560H666V-644H319Z"></path>
<path stroke-width="10" id="E1-MJSZ4-23A2" d="M319 0V602H403V0H319Z"></path>
<path stroke-width="10" id="E1-MJSZ4-23A4" d="M0 1070V1154H347V-645H263V1070H0Z"></path>
<path stroke-width="10" id="E1-MJSZ4-23A6" d="M263 -560V1155H347V-644H0V-560H263Z"></path>
<path stroke-width="10" id="E1-MJSZ4-23A5" d="M263 0V602H347V0H263Z"></path>
<path stroke-width="10" id="E1-MJMAIN-2212" d="M84 237T84 250T98 270H679Q694 262 694 250T679 230H98Q84 237 84 250Z"></path>
<path stroke-width="10" id="E1-MJMATHI-69" d="M184 600Q184 624 203 642T247 661Q265 661 277 649T290 619Q290 596 270 577T226 557Q211 557 198 567T184 600ZM21 287Q21 295 30 318T54 369T98 420T158 442Q197 442 223 419T250 357Q250 340 236 301T196 196T154 83Q149 61 149 51Q149 26 166 26Q175 26 185 29T208 43T235 78T260 137Q263 149 265 151T282 153Q302 153 302 143Q302 135 293 112T268 61T223 11T161 -11Q129 -11 102 10T74 74Q74 91 79 106T122 220Q160 321 166 341T173 380Q173 404 156 404H154Q124 404 99 371T61 287Q60 286 59 284T58 281T56 279T53 278T49 278T41 278H27Q21 284 21 287Z"></path>
</defs>
<g stroke="currentColor" fill="currentColor" stroke-width="0" transform="matrix(1 0 0 -1 0 0)">
 <use xlink:href="#E1-MJMATHI-57" x="0" y="0"></use>
 <use xlink:href="#E1-MJMAIN-3D" x="1330" y="0"></use>
<g transform="translate(2391,0)">
<g transform="translate(0,2931)">
 <use xlink:href="#E1-MJSZ4-23A1" x="0" y="-1164"></use>
<g transform="translate(0,-3565.2344994099612) scale(1,2.935023691846342)">
 <use xlink:href="#E1-MJSZ4-23A2"></use>
</g>
 <use xlink:href="#E1-MJSZ4-23A3" x="0" y="-4710"></use>
</g>
<g transform="translate(839,0)">
<g transform="translate(-11,0)">
<g transform="translate(0,2090)">
 <use xlink:href="#E1-MJMATHI-3C9" x="0" y="0"></use>
 <use transform="scale(0.707)" xlink:href="#E1-MJMAIN-30" x="886" y="513"></use>
</g>
<g transform="translate(0,650)">
 <use xlink:href="#E1-MJMATHI-3C9" x="0" y="0"></use>
 <use transform="scale(0.707)" xlink:href="#E1-MJMAIN-30" x="886" y="513"></use>
</g>
<g transform="translate(0,-791)">
 <use xlink:href="#E1-MJMATHI-3C9" x="0" y="0"></use>
 <use transform="scale(0.707)" xlink:href="#E1-MJMAIN-30" x="886" y="513"></use>
</g>
<g transform="translate(0,-2232)">
 <use xlink:href="#E1-MJMATHI-3C9" x="0" y="0"></use>
 <use transform="scale(0.707)" xlink:href="#E1-MJMAIN-30" x="886" y="513"></use>
</g>
</g>
<g transform="translate(2073,0)">
<g transform="translate(0,2090)">
 <use xlink:href="#E1-MJMATHI-3C9" x="0" y="0"></use>
 <use transform="scale(0.707)" xlink:href="#E1-MJMAIN-30" x="886" y="513"></use>
</g>
<g transform="translate(0,650)">
 <use xlink:href="#E1-MJMATHI-3C9" x="0" y="0"></use>
 <use transform="scale(0.707)" xlink:href="#E1-MJMAIN-31" x="886" y="513"></use>
</g>
<g transform="translate(0,-791)">
 <use xlink:href="#E1-MJMATHI-3C9" x="0" y="0"></use>
 <use transform="scale(0.707)" xlink:href="#E1-MJMAIN-32" x="886" y="513"></use>
</g>
<g transform="translate(0,-2232)">
 <use xlink:href="#E1-MJMATHI-3C9" x="0" y="0"></use>
 <use transform="scale(0.707)" xlink:href="#E1-MJMAIN-33" x="886" y="513"></use>
</g>
</g>
<g transform="translate(4157,0)">
<g transform="translate(0,2090)">
 <use xlink:href="#E1-MJMATHI-3C9" x="0" y="0"></use>
 <use transform="scale(0.707)" xlink:href="#E1-MJMAIN-30" x="886" y="513"></use>
</g>
<g transform="translate(0,650)">
 <use xlink:href="#E1-MJMATHI-3C9" x="0" y="0"></use>
 <use transform="scale(0.707)" xlink:href="#E1-MJMAIN-32" x="886" y="513"></use>
</g>
<g transform="translate(0,-791)">
 <use xlink:href="#E1-MJMATHI-3C9" x="0" y="0"></use>
 <use transform="scale(0.707)" xlink:href="#E1-MJMAIN-30" x="886" y="513"></use>
</g>
<g transform="translate(0,-2232)">
 <use xlink:href="#E1-MJMATHI-3C9" x="0" y="0"></use>
 <use transform="scale(0.707)" xlink:href="#E1-MJMAIN-32" x="886" y="513"></use>
</g>
</g>
<g transform="translate(6241,0)">
<g transform="translate(0,2090)">
 <use xlink:href="#E1-MJMATHI-3C9" x="0" y="0"></use>
 <use transform="scale(0.707)" xlink:href="#E1-MJMAIN-30" x="886" y="513"></use>
</g>
<g transform="translate(0,650)">
 <use xlink:href="#E1-MJMATHI-3C9" x="0" y="0"></use>
 <use transform="scale(0.707)" xlink:href="#E1-MJMAIN-33" x="886" y="513"></use>
</g>
<g transform="translate(0,-791)">
 <use xlink:href="#E1-MJMATHI-3C9" x="0" y="0"></use>
 <use transform="scale(0.707)" xlink:href="#E1-MJMAIN-32" x="886" y="513"></use>
</g>
<g transform="translate(0,-2232)">
 <use xlink:href="#E1-MJMATHI-3C9" x="0" y="0"></use>
 <use transform="scale(0.707)" xlink:href="#E1-MJMAIN-31" x="886" y="513"></use>
</g>
</g>
</g>
<g transform="translate(8331,2931)">
 <use xlink:href="#E1-MJSZ4-23A4" x="0" y="-1164"></use>
<g transform="translate(0,-3565.2344994099612) scale(1,2.935023691846342)">
 <use xlink:href="#E1-MJSZ4-23A5"></use>
</g>
 <use xlink:href="#E1-MJSZ4-23A6" x="0" y="-4710"></use>
</g>
</g>
 <use xlink:href="#E1-MJMAIN-3D" x="11673" y="0"></use>
<g transform="translate(12734,0)">
<g transform="translate(0,2850)">
 <use xlink:href="#E1-MJSZ4-23A1" x="0" y="-1164"></use>
<g transform="translate(0,-3404.279742765273) scale(1,2.672025723472669)">
 <use xlink:href="#E1-MJSZ4-23A2"></use>
</g>
 <use xlink:href="#E1-MJSZ4-23A3" x="0" y="-4546"></use>
</g>
<g transform="translate(839,0)">
<g transform="translate(-11,0)">
 <use xlink:href="#E1-MJMAIN-31" x="0" y="2050"></use>
 <use xlink:href="#E1-MJMAIN-31" x="0" y="650"></use>
 <use xlink:href="#E1-MJMAIN-31" x="0" y="-750"></use>
 <use xlink:href="#E1-MJMAIN-31" x="0" y="-2150"></use>
</g>
<g transform="translate(1494,0)">
 <use xlink:href="#E1-MJMAIN-31" x="391" y="2050"></use>
<g transform="translate(77,650)">
 <use xlink:href="#E1-MJMAIN-2212" x="0" y="0"></use>
 <use xlink:href="#E1-MJMATHI-69" x="783" y="0"></use>
</g>
<g transform="translate(0,-750)">
 <use xlink:href="#E1-MJMAIN-2212" x="0" y="0"></use>
 <use xlink:href="#E1-MJMAIN-31" x="783" y="0"></use>
</g>
 <use xlink:href="#E1-MJMATHI-69" x="469" y="-2150"></use>
</g>
<g transform="translate(3782,0)">
 <use xlink:href="#E1-MJMAIN-31" x="391" y="2050"></use>
<g transform="translate(0,650)">
 <use xlink:href="#E1-MJMAIN-2212" x="0" y="0"></use>
 <use xlink:href="#E1-MJMAIN-31" x="783" y="0"></use>
</g>
 <use xlink:href="#E1-MJMAIN-31" x="391" y="-750"></use>
<g transform="translate(0,-2150)">
 <use xlink:href="#E1-MJMAIN-2212" x="0" y="0"></use>
 <use xlink:href="#E1-MJMAIN-31" x="783" y="0"></use>
</g>
</g>
<g transform="translate(6070,0)">
 <use xlink:href="#E1-MJMAIN-31" x="391" y="2050"></use>
 <use xlink:href="#E1-MJMATHI-69" x="469" y="650"></use>
<g transform="translate(0,-750)">
 <use xlink:href="#E1-MJMAIN-2212" x="0" y="0"></use>
 <use xlink:href="#E1-MJMAIN-31" x="783" y="0"></use>
</g>
<g transform="translate(77,-2150)">
 <use xlink:href="#E1-MJMAIN-2212" x="0" y="0"></use>
 <use xlink:href="#E1-MJMATHI-69" x="783" y="0"></use>
</g>
</g>
</g>
<g transform="translate(8364,2850)">
 <use xlink:href="#E1-MJSZ4-23A4" x="0" y="-1164"></use>
<g transform="translate(0,-3404.279742765273) scale(1,2.672025723472669)">
 <use xlink:href="#E1-MJSZ4-23A5"></use>
</g>
 <use xlink:href="#E1-MJSZ4-23A6" x="0" y="-4546"></use>
</g>
</g>
</g>
</svg>