<svg version="1.1" xmlns="http://www.w3.org/2000/svg" xmlns:xlink="http://www.w3.org/1999/xlink" width="825" height="490"><style xmlns="http://www.w3.org/1999/xhtml"></style><defs/><g transform="translate(0,0)"><g><rect fill="#FFFFFF" stroke="none" x="0" y="0" width="825" height="490"/></g><g transform="matrix(1,0,0,1,163,109)"><g><g><rect fill="rgb(0,0,0)" stroke="none" x="0" y="0" width="643" height="23" fill-opacity="0"/></g></g><g><g><rect fill="rgb(0,0,0)" stroke="none" x="0" y="0" width="643" height="23" fill-opacity="0"/></g></g><g><g><rect fill="rgb(0,0,0)" stroke="none" x="0" y="7.366668701171875" width="219" height="14" fill-opacity="0"/></g></g><g><g><rect fill="rgb(0,0,0)" stroke="none" x="0" y="7.366668701171875" width="219" height="14" fill-opacity="0"/></g></g><g><g><rect fill="rgb(0,0,0)" stroke="none" x="0" y="0.366668701171875" width="219" height="22" fill-opacity="0"/></g><text fill="rgb(0, 0, 0)" stroke="none" font-family="&quot;Arial&quot;" font-size="20px" font-style="normal" font-weight="normal" text-decoration="" line-height="22.75px" x="0" y="19.366668701171875">./</text><text fill="rgb(0, 0, 0)" stroke="none" font-family="&quot;Arial&quot;" font-size="20px" font-style="normal" font-weight="normal" text-decoration="" line-height="22.75px" x="12" y="19.366668701171875">MyCalculator</text><text fill="rgb(0, 0, 0)" stroke="none" font-family="&quot;Arial&quot;" font-size="20px" font-style="normal" font-weight="normal" text-decoration="" line-height="22.75px" x="134" y="19.366668701171875">12</text><text fill="rgb(0, 0, 0)" stroke="none" font-family="&quot;Arial&quot;" font-size="20px" font-style="normal" font-weight="normal" text-decoration="" line-height="22.75px" x="156" y="19.366668701171875">.</text><text fill="rgb(0, 0, 0)" stroke="none" font-family="&quot;Arial&quot;" font-size="20px" font-style="normal" font-weight="normal" text-decoration="" line-height="22.75px" x="162" y="19.366668701171875">4</text><text fill="rgb(0, 0, 0)" stroke="none" font-family="&quot;Arial&quot;" font-size="20px" font-style="normal" font-weight="normal" text-decoration="" line-height="22.75px" x="173" y="19.366668701171875"> /</text><text fill="rgb(0, 0, 0)" stroke="none" font-family="&quot;Arial&quot;" font-size="20px" font-style="normal" font-weight="normal" text-decoration="" line-height="22.75px" x="191" y="19.366668701171875">3</text><text fill="rgb(0, 0, 0)" stroke="none" font-family="&quot;Arial&quot;" font-size="20px" font-style="normal" font-weight="normal" text-decoration="" line-height="22.75px" x="202" y="19.366668701171875">.</text><text fill="rgb(0, 0, 0)" stroke="none" font-family="&quot;Arial&quot;" font-size="20px" font-style="normal" font-weight="normal" text-decoration="" line-height="22.75px" x="208" y="19.366668701171875">2</text></g><g><g/></g></g><g transform="translate(0,0) matrix(1,0,0,1,191,170)"><g><g transform="translate(0,0) scale(1.5,0.75)"><g><path fill="#6d9eeb" stroke="none" d="M 0 0 L 100 0 Q 100 0 100 0 L 100 100 Q 100 100 100 100 L 0 100 Q 0 100 0 100 L 0 0 Q 0 0 0 0 Z"/><g transform="scale(0.6666666666666666,1.3333333333333333)"><path fill="none" stroke="none" d="M 0 0 L 150 0 Q 150 0 150 0 L 150 75 Q 150 75 150 75 L 0 75 Q 0 75 0 75 L 0 0 Q 0 0 0 0 Z"/><path fill="none" stroke="#333333" d="M 0 0 M 0 0 L 150 0 Q 150 0 150 0 L 150 75 Q 150 75 150 75 L 0 75 Q 0 75 0 75 L 0 0 Q 0 0 0 0 Z" stroke-miterlimit="10" stroke-width="2"/></g></g></g></g></g><g transform="matrix(1,0,0,1,202,197)"><g><g><rect fill="rgb(0,0,0)" stroke="none" x="0" y="0" width="129" height="21" fill-opacity="0"/></g></g><g><g><rect fill="rgb(0,0,0)" stroke="none" x="0" y="0" width="129" height="21" fill-opacity="0"/></g></g><g><g><rect fill="rgb(0,0,0)" stroke="none" x="0.98333740234375" y="5.25" width="127" height="14" fill-opacity="0"/></g></g><g><g><rect fill="rgb(0,0,0)" stroke="none" x="0.98333740234375" y="5.25" width="127" height="14" fill-opacity="0"/></g></g><g><g><rect fill="rgb(0,0,0)" stroke="none" x="0.98333740234375" y="0.25" width="127" height="20" fill-opacity="0"/></g><text fill="rgb(0, 0, 0)" stroke="none" font-family="&quot;Arial&quot;" font-size="18px" font-style="normal" font-weight="normal" text-decoration="" line-height="20.5px" x="0.98333740234375" y="17.25">"./</text><text fill="rgb(0, 0, 0)" stroke="none" font-family="&quot;Arial&quot;" font-size="18px" font-style="normal" font-weight="normal" text-decoration="" line-height="20.5px" x="16.98333740234375" y="17.25">MyCalculator</text><text fill="rgb(0, 0, 0)" stroke="none" font-family="&quot;Arial&quot;" font-size="18px" font-style="normal" font-weight="normal" text-decoration="" line-height="20.5px" x="121.98333740234375" y="17.25">"</text></g><g><g/></g></g><g transform="translate(0,0) matrix(1,0,0,1,191,245)"><g><g transform="translate(0,0) scale(1.5,0.75)"><g><path fill="#b6d7a8" stroke="none" d="M 0 0 L 100 0 Q 100 0 100 0 L 100 100 Q 100 100 100 100 L 0 100 Q 0 100 0 100 L 0 0 Q 0 0 0 0 Z"/><g transform="scale(0.6666666666666666,1.3333333333333333)"><path fill="none" stroke="none" d="M 0 0 L 150 0 Q 150 0 150 0 L 150 75 Q 150 75 150 75 L 0 75 Q 0 75 0 75 L 0 0 Q 0 0 0 0 Z"/><path fill="none" stroke="#333333" d="M 0 0 M 0 0 L 150 0 Q 150 0 150 0 L 150 75 Q 150 75 150 75 L 0 75 Q 0 75 0 75 L 0 0 Q 0 0 0 0 Z" stroke-miterlimit="10" stroke-width="2"/></g></g></g></g></g><g transform="matrix(1,0,0,1,202,271)"><g><g><rect fill="rgb(0,0,0)" stroke="none" x="0" y="0" width="129" height="23" fill-opacity="0"/></g></g><g><g><rect fill="rgb(0,0,0)" stroke="none" x="0" y="0" width="129" height="23" fill-opacity="0"/></g></g><g><g><rect fill="rgb(0,0,0)" stroke="none" x="38" y="0.366668701171875" width="53" height="22" fill-opacity="0"/></g><text fill="rgb(0, 0, 0)" stroke="none" font-family="&quot;Arial&quot;" font-size="20px" font-style="normal" font-weight="normal" text-decoration="" line-height="22.75px" x="38" y="19.366668701171875">"</text><text fill="rgb(0, 0, 0)" stroke="none" font-family="&quot;Arial&quot;" font-size="20px" font-style="normal" font-weight="normal" text-decoration="" line-height="22.75px" x="45" y="19.366668701171875">12</text><text fill="rgb(0, 0, 0)" stroke="none" font-family="&quot;Arial&quot;" font-size="20px" font-style="normal" font-weight="normal" text-decoration="" line-height="22.75px" x="67" y="19.366668701171875">.</text><text fill="rgb(0, 0, 0)" stroke="none" font-family="&quot;Arial&quot;" font-size="20px" font-style="normal" font-weight="normal" text-decoration="" line-height="22.75px" x="73" y="19.366668701171875">4</text><text fill="rgb(0, 0, 0)" stroke="none" font-family="&quot;Arial&quot;" font-size="20px" font-style="normal" font-weight="normal" text-decoration="" line-height="22.75px" x="84" y="19.366668701171875">"</text></g></g><g transform="translate(0,0) matrix(1,0,0,1,191,320)"><g><g transform="translate(0,0) scale(1.5,0.75)"><g><path fill="#ea9999" stroke="none" d="M 0 0 L 100 0 Q 100 0 100 0 L 100 100 Q 100 100 100 100 L 0 100 Q 0 100 0 100 L 0 0 Q 0 0 0 0 Z"/><g transform="scale(0.6666666666666666,1.3333333333333333)"><path fill="none" stroke="none" d="M 0 0 L 150 0 Q 150 0 150 0 L 150 75 Q 150 75 150 75 L 0 75 Q 0 75 0 75 L 0 0 Q 0 0 0 0 Z"/><path fill="none" stroke="#333333" d="M 0 0 M 0 0 L 150 0 Q 150 0 150 0 L 150 75 Q 150 75 150 75 L 0 75 Q 0 75 0 75 L 0 0 Q 0 0 0 0 Z" stroke-miterlimit="10" stroke-width="2"/></g></g></g></g></g><g transform="matrix(1,0,0,1,202,346)"><g><g><rect fill="rgb(0,0,0)" stroke="none" x="0" y="0" width="129" height="23" fill-opacity="0"/></g></g><g><g><rect fill="rgb(0,0,0)" stroke="none" x="0" y="0" width="129" height="23" fill-opacity="0"/></g></g><g><g><rect fill="rgb(0,0,0)" stroke="none" x="54.48333740234375" y="7.366668701171875" width="20" height="14" fill-opacity="0"/></g></g><g><g><rect fill="rgb(0,0,0)" stroke="none" x="54.48333740234375" y="7.366668701171875" width="20" height="14" fill-opacity="0"/></g></g><g><g><rect fill="rgb(0,0,0)" stroke="none" x="54.48333740234375" y="0.366668701171875" width="20" height="22" fill-opacity="0"/></g><text fill="rgb(0, 0, 0)" stroke="none" font-family="&quot;Arial&quot;" font-size="20px" font-style="normal" font-weight="normal" text-decoration="" line-height="22.75px" x="54.48333740234375" y="19.366668701171875">"/"</text></g><g><g/></g></g><g transform="translate(0,0) matrix(1,0,0,1,191,395)"><g><g transform="translate(0,0) scale(1.5,0.75)"><g><path fill="#b6d7a8" stroke="none" d="M 0 0 L 100 0 Q 100 0 100 0 L 100 100 Q 100 100 100 100 L 0 100 Q 0 100 0 100 L 0 0 Q 0 0 0 0 Z"/><g transform="scale(0.6666666666666666,1.3333333333333333)"><path fill="none" stroke="none" d="M 0 0 L 150 0 Q 150 0 150 0 L 150 75 Q 150 75 150 75 L 0 75 Q 0 75 0 75 L 0 0 Q 0 0 0 0 Z"/><path fill="none" stroke="#333333" d="M 0 0 M 0 0 L 150 0 Q 150 0 150 0 L 150 75 Q 150 75 150 75 L 0 75 Q 0 75 0 75 L 0 0 Q 0 0 0 0 Z" stroke-miterlimit="10" stroke-width="2"/></g></g></g></g></g><g transform="matrix(1,0,0,1,202,421)"><g><g><rect fill="rgb(0,0,0)" stroke="none" x="0" y="0" width="129" height="23" fill-opacity="0"/></g></g><g><g><rect fill="rgb(0,0,0)" stroke="none" x="0" y="0" width="129" height="23" fill-opacity="0"/></g></g><g><g><rect fill="rgb(0,0,0)" stroke="none" x="43.48333740234375" y="7.366668701171875" width="42" height="14" fill-opacity="0"/></g></g><g><g><rect fill="rgb(0,0,0)" stroke="none" x="43.48333740234375" y="7.366668701171875" width="42" height="14" fill-opacity="0"/></g></g><g><g><rect fill="rgb(0,0,0)" stroke="none" x="43.48333740234375" y="0.366668701171875" width="42" height="22" fill-opacity="0"/></g><text fill="rgb(0, 0, 0)" stroke="none" font-family="&quot;Arial&quot;" font-size="20px" font-style="normal" font-weight="normal" text-decoration="" line-height="22.75px" x="43.48333740234375" y="19.366668701171875">"</text><text fill="rgb(0, 0, 0)" stroke="none" font-family="&quot;Arial&quot;" font-size="20px" font-style="normal" font-weight="normal" text-decoration="" line-height="22.75px" x="50.48333740234375" y="19.366668701171875">3</text><text fill="rgb(0, 0, 0)" stroke="none" font-family="&quot;Arial&quot;" font-size="20px" font-style="normal" font-weight="normal" text-decoration="" line-height="22.75px" x="61.48333740234375" y="19.366668701171875">.</text><text fill="rgb(0, 0, 0)" stroke="none" font-family="&quot;Arial&quot;" font-size="20px" font-style="normal" font-weight="normal" text-decoration="" line-height="22.75px" x="67.48333740234375" y="19.366668701171875">2</text><text fill="rgb(0, 0, 0)" stroke="none" font-family="&quot;Arial&quot;" font-size="20px" font-style="normal" font-weight="normal" text-decoration="" line-height="22.75px" x="78.48333740234375" y="19.366668701171875">"</text></g><g><g/></g></g><g transform="matrix(1,0,0,1,94,195)"><g><g><rect fill="rgb(0,0,0)" stroke="none" x="0" y="0" width="77" height="46" fill-opacity="0"/></g></g><g><g><rect fill="rgb(0,0,0)" stroke="none" x="0" y="0" width="77" height="23" fill-opacity="0"/></g></g><g><g><rect fill="rgb(0,0,0)" stroke="none" x="7.48333740234375" y="7.366668701171875" width="62" height="14" fill-opacity="0"/></g></g><g><g><rect fill="rgb(0,0,0)" stroke="none" x="7.48333740234375" y="7.366668701171875" width="62" height="14" fill-opacity="0"/></g></g><g><g><rect fill="rgb(0,0,0)" stroke="none" x="7.48333740234375" y="0.366668701171875" width="62" height="22" fill-opacity="0"/></g><text fill="rgb(0, 0, 0)" stroke="none" font-family="&quot;Arial&quot;" font-size="20px" font-style="normal" font-weight="normal" text-decoration="" line-height="22.75px" x="7.48333740234375" y="19.366668701171875">argv</text><text fill="rgb(0, 0, 0)" stroke="none" font-family="&quot;Arial&quot;" font-size="20px" font-style="normal" font-weight="normal" text-decoration="" line-height="22.75px" x="46.48333740234375" y="19.366668701171875">[</text><text fill="rgb(0, 0, 0)" stroke="none" font-family="&quot;Arial&quot;" font-size="20px" font-style="normal" font-weight="normal" text-decoration="" line-height="22.75px" x="52.48333740234375" y="19.366668701171875">0</text><text fill="rgb(0, 0, 0)" stroke="none" font-family="&quot;Arial&quot;" font-size="20px" font-style="normal" font-weight="normal" text-decoration="" line-height="22.75px" x="63.48333740234375" y="19.366668701171875">]</text></g><g><g/></g></g><g transform="matrix(1,0,0,1,92,267)"><g><g><rect fill="rgb(0,0,0)" stroke="none" x="0" y="0" width="77" height="23" fill-opacity="0"/></g></g><g><g><rect fill="rgb(0,0,0)" stroke="none" x="0" y="0" width="77" height="23" fill-opacity="0"/></g></g><g><g><rect fill="rgb(0,0,0)" stroke="none" x="7.48333740234375" y="7.366668701171875" width="62" height="14" fill-opacity="0"/></g></g><g><g><rect fill="rgb(0,0,0)" stroke="none" x="7.48333740234375" y="7.366668701171875" width="62" height="14" fill-opacity="0"/></g></g><g><g><rect fill="rgb(0,0,0)" stroke="none" x="7.48333740234375" y="0.366668701171875" width="62" height="22" fill-opacity="0"/></g><text fill="rgb(0, 0, 0)" stroke="none" font-family="&quot;Arial&quot;" font-size="20px" font-style="normal" font-weight="normal" text-decoration="" line-height="22.75px" x="7.48333740234375" y="19.366668701171875">argv</text><text fill="rgb(0, 0, 0)" stroke="none" font-family="&quot;Arial&quot;" font-size="20px" font-style="normal" font-weight="normal" text-decoration="" line-height="22.75px" x="46.48333740234375" y="19.366668701171875">[</text><text fill="rgb(0, 0, 0)" stroke="none" font-family="&quot;Arial&quot;" font-size="20px" font-style="normal" font-weight="normal" text-decoration="" line-height="22.75px" x="52.48333740234375" y="19.366668701171875">1</text><text fill="rgb(0, 0, 0)" stroke="none" font-family="&quot;Arial&quot;" font-size="20px" font-style="normal" font-weight="normal" text-decoration="" line-height="22.75px" x="63.48333740234375" y="19.366668701171875">]</text></g><g><g/></g></g><g transform="matrix(1,0,0,1,93,346)"><g><g><rect fill="rgb(0,0,0)" stroke="none" x="0" y="0" width="77" height="23" fill-opacity="0"/></g></g><g><g><rect fill="rgb(0,0,0)" stroke="none" x="0" y="0" width="77" height="23" fill-opacity="0"/></g></g><g><g><rect fill="rgb(0,0,0)" stroke="none" x="7.48333740234375" y="7.366668701171875" width="62" height="14" fill-opacity="0"/></g></g><g><g><rect fill="rgb(0,0,0)" stroke="none" x="7.48333740234375" y="7.366668701171875" width="62" height="14" fill-opacity="0"/></g></g><g><g><rect fill="rgb(0,0,0)" stroke="none" x="7.48333740234375" y="0.366668701171875" width="62" height="22" fill-opacity="0"/></g><text fill="rgb(0, 0, 0)" stroke="none" font-family="&quot;Arial&quot;" font-size="20px" font-style="normal" font-weight="normal" text-decoration="" line-height="22.75px" x="7.48333740234375" y="19.366668701171875">argv</text><text fill="rgb(0, 0, 0)" stroke="none" font-family="&quot;Arial&quot;" font-size="20px" font-style="normal" font-weight="normal" text-decoration="" line-height="22.75px" x="46.48333740234375" y="19.366668701171875">[</text><text fill="rgb(0, 0, 0)" stroke="none" font-family="&quot;Arial&quot;" font-size="20px" font-style="normal" font-weight="normal" text-decoration="" line-height="22.75px" x="52.48333740234375" y="19.366668701171875">2</text><text fill="rgb(0, 0, 0)" stroke="none" font-family="&quot;Arial&quot;" font-size="20px" font-style="normal" font-weight="normal" text-decoration="" line-height="22.75px" x="63.48333740234375" y="19.366668701171875">]</text></g><g><g/></g></g><g transform="matrix(1,0,0,1,91,416)"><g><g><rect fill="rgb(0,0,0)" stroke="none" x="0" y="0" width="77" height="23" fill-opacity="0"/></g></g><g><g><rect fill="rgb(0,0,0)" stroke="none" x="0" y="0" width="77" height="23" fill-opacity="0"/></g></g><g><g><rect fill="rgb(0,0,0)" stroke="none" x="7.48333740234375" y="7.366668701171875" width="62" height="14" fill-opacity="0"/></g></g><g><g><rect fill="rgb(0,0,0)" stroke="none" x="7.48333740234375" y="7.366668701171875" width="62" height="14" fill-opacity="0"/></g></g><g><g><rect fill="rgb(0,0,0)" stroke="none" x="7.48333740234375" y="0.366668701171875" width="62" height="22" fill-opacity="0"/></g><text fill="rgb(0, 0, 0)" stroke="none" font-family="&quot;Arial&quot;" font-size="20px" font-style="normal" font-weight="normal" text-decoration="" line-height="22.75px" x="7.48333740234375" y="19.366668701171875">argv</text><text fill="rgb(0, 0, 0)" stroke="none" font-family="&quot;Arial&quot;" font-size="20px" font-style="normal" font-weight="normal" text-decoration="" line-height="22.75px" x="46.48333740234375" y="19.366668701171875">[</text><text fill="rgb(0, 0, 0)" stroke="none" font-family="&quot;Arial&quot;" font-size="20px" font-style="normal" font-weight="normal" text-decoration="" line-height="22.75px" x="52.48333740234375" y="19.366668701171875">3</text><text fill="rgb(0, 0, 0)" stroke="none" font-family="&quot;Arial&quot;" font-size="20px" font-style="normal" font-weight="normal" text-decoration="" line-height="22.75px" x="63.48333740234375" y="19.366668701171875">]</text></g><g><g/></g></g><g transform="matrix(1,0,0,1,372,195)"><g><g><rect fill="rgb(0,0,0)" stroke="none" x="0" y="0" width="111" height="46" fill-opacity="0"/></g></g><g><g><rect fill="rgb(0,0,0)" stroke="none" x="0" y="0" width="111" height="23" fill-opacity="0"/></g></g><g><g><rect fill="rgb(0,0,0)" stroke="none" x="8.48333740234375" y="0.366668701171875" width="94" height="22" fill-opacity="0"/></g></g><g><g><rect fill="rgb(0,0,0)" stroke="none" x="8.48333740234375" y="0.366668701171875" width="94" height="22" fill-opacity="0"/></g><text fill="rgb(0, 0, 0)" stroke="none" font-family="&quot;Arial&quot;" font-size="20px" font-style="normal" font-weight="normal" text-decoration="" line-height="22.75px" x="8.48333740234375" y="19.366668701171875">App</text><text fill="rgb(0, 0, 0)" stroke="none" font-family="&quot;Arial&quot;" font-size="20px" font-style="normal" font-weight="normal" text-decoration="" line-height="22.75px" x="49.48333740234375" y="19.366668701171875">Name</text></g><g><g/></g><g><g/></g><g><g/></g></g><g transform="matrix(1,0,0,1,372,271)"><g><g><rect fill="rgb(0,0,0)" stroke="none" x="0" y="0" width="111" height="46" fill-opacity="0"/></g></g><g><g><rect fill="rgb(0,0,0)" stroke="none" x="0" y="0" width="111" height="23" fill-opacity="0"/></g></g><g><g><rect fill="rgb(0,0,0)" stroke="none" x="10.48333740234375" y="0.366668701171875" width="90" height="22" fill-opacity="0"/></g></g><g><g><rect fill="rgb(0,0,0)" stroke="none" x="10.48333740234375" y="0.366668701171875" width="90" height="22" fill-opacity="0"/></g><text fill="rgb(0, 0, 0)" stroke="none" font-family="&quot;Arial&quot;" font-size="20px" font-style="normal" font-weight="normal" text-decoration="" line-height="22.75px" x="10.48333740234375" y="19.366668701171875">operand</text><text fill="rgb(0, 0, 0)" stroke="none" font-family="&quot;Arial&quot;" font-size="20px" font-style="normal" font-weight="normal" text-decoration="" line-height="22.75px" x="89.48333740234375" y="19.366668701171875">a</text></g><g><g/></g><g><g/></g><g><g/></g></g><g transform="matrix(1,0,0,1,372,346)"><g><g><rect fill="rgb(0,0,0)" stroke="none" x="0" y="0" width="97" height="46" fill-opacity="0"/></g></g><g><g><rect fill="rgb(0,0,0)" stroke="none" x="0" y="0" width="97" height="23" fill-opacity="0"/></g></g><g><g><rect fill="rgb(0,0,0)" stroke="none" x="6.98333740234375" y="0.366668701171875" width="83" height="22" fill-opacity="0"/></g></g><g><g><rect fill="rgb(0,0,0)" stroke="none" x="6.98333740234375" y="0.366668701171875" width="83" height="22" fill-opacity="0"/></g><text fill="rgb(0, 0, 0)" stroke="none" font-family="&quot;Arial&quot;" font-size="20px" font-style="normal" font-weight="normal" text-decoration="" line-height="22.75px" x="6.98333740234375" y="19.366668701171875">operation</text></g><g><g/></g><g><g/></g><g><g/></g></g><g transform="matrix(1,0,0,1,372,425)"><g><g><rect fill="rgb(0,0,0)" stroke="none" x="0" y="0" width="104" height="46" fill-opacity="0"/></g></g><g><g><rect fill="rgb(0,0,0)" stroke="none" x="0" y="0" width="104" height="23" fill-opacity="0"/></g></g><g><g><rect fill="rgb(0,0,0)" stroke="none" x="6.98333740234375" y="7.366668701171875" width="90" height="14" fill-opacity="0"/></g></g><g><g><rect fill="rgb(0,0,0)" stroke="none" x="6.98333740234375" y="7.366668701171875" width="90" height="14" fill-opacity="0"/></g></g><g><g><rect fill="rgb(0,0,0)" stroke="none" x="6.98333740234375" y="0.366668701171875" width="90" height="22" fill-opacity="0"/></g><text fill="rgb(0, 0, 0)" stroke="none" font-family="&quot;Arial&quot;" font-size="20px" font-style="normal" font-weight="normal" text-decoration="" line-height="22.75px" x="6.98333740234375" y="19.366668701171875">operand</text><text fill="rgb(0, 0, 0)" stroke="none" font-family="&quot;Arial&quot;" font-size="20px" font-style="normal" font-weight="normal" text-decoration="" line-height="22.75px" x="85.98333740234375" y="19.366668701171875">b</text></g><g><g/></g></g></g></svg>