<svg version="1.1" xmlns="http://www.w3.org/2000/svg" xmlns:xlink="http://www.w3.org/1999/xlink" width="868" height="225"><style xmlns="http://www.w3.org/1999/xhtml"></style><defs/><g transform="translate(0,0)"><g><rect fill="#FFFFFF" stroke="none" x="0" y="0" width="868" height="225"/></g><g transform="translate(0,0) matrix(1,0,0,1,220,130)"><g><g transform="translate(0,0) scale(1,0.75)"><g><path fill="#FFFFFF" stroke="none" d="M 0 0 L 100 0 Q 100 0 100 0 L 100 100 Q 100 100 100 100 L 0 100 Q 0 100 0 100 L 0 0 Q 0 0 0 0 Z"/><g transform="scale(1,1.3333333333333333)"><path fill="none" stroke="none" d="M 0 0 L 100 0 Q 100 0 100 0 L 100 75 Q 100 75 100 75 L 0 75 Q 0 75 0 75 L 0 0 Q 0 0 0 0 Z"/><path fill="none" stroke="#333333" d="M 0 0 M 0 0 L 100 0 Q 100 0 100 0 L 100 75 Q 100 75 100 75 L 0 75 Q 0 75 0 75 L 0 0 Q 0 0 0 0 Z" stroke-miterlimit="10" stroke-width="2"/></g></g></g></g></g><g transform="matrix(1,0,0,1,230,141)"><g><g><rect fill="rgb(0,0,0)" stroke="none" x="0" y="0" width="81" height="53" fill-opacity="0"/></g></g><g><g><rect fill="rgb(0,0,0)" stroke="none" x="0" y="0" width="81" height="53" fill-opacity="0"/></g></g><g><g><rect fill="rgb(0,0,0)" stroke="none" x="15.48333740234375" y="32" width="50" height="14" fill-opacity="0"/></g></g><g><g><rect fill="rgb(0,0,0)" stroke="none" x="15.48333740234375" y="32" width="50" height="14" fill-opacity="0"/></g></g><g><g><rect fill="rgb(0,0,0)" stroke="none" x="15.48333740234375" y="0" width="50" height="53" fill-opacity="0"/></g><text fill="rgb(39, 78, 19)" stroke="none" font-family="&quot;Arial&quot;" font-size="48px" font-style="normal" font-weight="normal" text-decoration="" line-height="53px" x="15.48333740234375" y="44">'</text><text fill="rgb(39, 78, 19)" stroke="none" font-family="&quot;Arial&quot;" font-size="48px" font-style="normal" font-weight="normal" text-decoration="" line-height="53px" x="24.48333740234375" y="44">A</text><text fill="rgb(39, 78, 19)" stroke="none" font-family="&quot;Arial&quot;" font-size="48px" font-style="normal" font-weight="normal" text-decoration="" line-height="53px" x="56.48333740234375" y="44">'</text></g><g><g/></g></g><g transform="translate(0,0) matrix(1,0,0,1,320,130)"><g><g transform="translate(0,0) scale(1,0.75)"><g><path fill="#FFFFFF" stroke="none" d="M 0 0 L 100 0 Q 100 0 100 0 L 100 100 Q 100 100 100 100 L 0 100 Q 0 100 0 100 L 0 0 Q 0 0 0 0 Z"/><g transform="scale(1,1.3333333333333333)"><path fill="none" stroke="none" d="M 0 0 L 100 0 Q 100 0 100 0 L 100 75 Q 100 75 100 75 L 0 75 Q 0 75 0 75 L 0 0 Q 0 0 0 0 Z"/><path fill="none" stroke="#333333" d="M 0 0 M 0 0 L 100 0 Q 100 0 100 0 L 100 75 Q 100 75 100 75 L 0 75 Q 0 75 0 75 L 0 0 Q 0 0 0 0 Z" stroke-miterlimit="10" stroke-width="2"/></g></g></g></g></g><g transform="matrix(1,0,0,1,330,141)"><g><g><rect fill="rgb(0,0,0)" stroke="none" x="0" y="0" width="81" height="53" fill-opacity="0"/></g></g><g><g><rect fill="rgb(0,0,0)" stroke="none" x="0" y="0" width="81" height="53" fill-opacity="0"/></g></g><g><g><rect fill="rgb(0,0,0)" stroke="none" x="17" y="0" width="47" height="53" fill-opacity="0"/></g><text fill="rgb(39, 78, 19)" stroke="none" font-family="&quot;Arial&quot;" font-size="48px" font-style="normal" font-weight="normal" text-decoration="" line-height="53px" x="17" y="44">'</text><text fill="rgb(39, 78, 19)" stroke="none" font-family="&quot;Arial&quot;" font-size="48px" font-style="normal" font-weight="normal" text-decoration="" line-height="53px" x="26" y="44">T</text><text fill="rgb(39, 78, 19)" stroke="none" font-family="&quot;Arial&quot;" font-size="48px" font-style="normal" font-weight="normal" text-decoration="" line-height="53px" x="55" y="44">'</text></g></g><g transform="translate(0,0) matrix(1,0,0,1,420,130)"><g><g transform="translate(0,0) scale(1,0.75)"><g><path fill="#FFFFFF" stroke="none" d="M 0 0 L 100 0 Q 100 0 100 0 L 100 100 Q 100 100 100 100 L 0 100 Q 0 100 0 100 L 0 0 Q 0 0 0 0 Z"/><g transform="scale(1,1.3333333333333333)"><path fill="none" stroke="none" d="M 0 0 L 100 0 Q 100 0 100 0 L 100 75 Q 100 75 100 75 L 0 75 Q 0 75 0 75 L 0 0 Q 0 0 0 0 Z"/><path fill="none" stroke="#333333" d="M 0 0 M 0 0 L 100 0 Q 100 0 100 0 L 100 75 Q 100 75 100 75 L 0 75 Q 0 75 0 75 L 0 0 Q 0 0 0 0 Z" stroke-miterlimit="10" stroke-width="2"/></g></g></g></g></g><g transform="matrix(1,0,0,1,430,141)"><g><g><rect fill="rgb(0,0,0)" stroke="none" x="0" y="0" width="81" height="53" fill-opacity="0"/></g></g><g><g><rect fill="rgb(0,0,0)" stroke="none" x="0" y="0" width="81" height="53" fill-opacity="0"/></g></g><g><g><rect fill="rgb(0,0,0)" stroke="none" x="16.98333740234375" y="32" width="47" height="14" fill-opacity="0"/></g></g><g><g><rect fill="rgb(0,0,0)" stroke="none" x="16.98333740234375" y="32" width="47" height="14" fill-opacity="0"/></g></g><g><g><rect fill="rgb(0,0,0)" stroke="none" x="16.98333740234375" y="0" width="47" height="53" fill-opacity="0"/></g><text fill="rgb(39, 78, 19)" stroke="none" font-family="&quot;Arial&quot;" font-size="48px" font-style="normal" font-weight="normal" text-decoration="" line-height="53px" x="16.98333740234375" y="44">'</text><text fill="rgb(39, 78, 19)" stroke="none" font-family="&quot;Arial&quot;" font-size="48px" font-style="normal" font-weight="normal" text-decoration="" line-height="53px" x="25.98333740234375" y="44">T</text><text fill="rgb(39, 78, 19)" stroke="none" font-family="&quot;Arial&quot;" font-size="48px" font-style="normal" font-weight="normal" text-decoration="" line-height="53px" x="54.98333740234375" y="44">'</text></g><g><g/></g></g><g transform="translate(0,0) matrix(1,0,0,1,520,130)"><g><g transform="translate(0,0) scale(1,0.75)"><g><path fill="#FFFFFF" stroke="none" d="M 0 0 L 100 0 Q 100 0 100 0 L 100 100 Q 100 100 100 100 L 0 100 Q 0 100 0 100 L 0 0 Q 0 0 0 0 Z"/><g transform="scale(1,1.3333333333333333)"><path fill="none" stroke="none" d="M 0 0 L 100 0 Q 100 0 100 0 L 100 75 Q 100 75 100 75 L 0 75 Q 0 75 0 75 L 0 0 Q 0 0 0 0 Z"/><path fill="none" stroke="#333333" d="M 0 0 M 0 0 L 100 0 Q 100 0 100 0 L 100 75 Q 100 75 100 75 L 0 75 Q 0 75 0 75 L 0 0 Q 0 0 0 0 Z" stroke-miterlimit="10" stroke-width="2"/></g></g></g></g></g><g transform="matrix(1,0,0,1,530,141)"><g><g><rect fill="rgb(0,0,0)" stroke="none" x="0" y="0" width="81" height="53" fill-opacity="0"/></g></g><g><g><rect fill="rgb(0,0,0)" stroke="none" x="0" y="0" width="81" height="53" fill-opacity="0"/></g></g><g><g><rect fill="rgb(0,0,0)" stroke="none" x="12.98333740234375" y="32" width="55" height="14" fill-opacity="0"/></g></g><g><g><rect fill="rgb(0,0,0)" stroke="none" x="12.98333740234375" y="32" width="55" height="14" fill-opacity="0"/></g></g><g><g><rect fill="rgb(0,0,0)" stroke="none" x="12.98333740234375" y="0" width="55" height="53" fill-opacity="0"/></g><text fill="rgb(39, 78, 19)" stroke="none" font-family="&quot;Arial&quot;" font-size="48px" font-style="normal" font-weight="normal" text-decoration="" line-height="53px" x="12.98333740234375" y="44">'</text><text fill="rgb(39, 78, 19)" stroke="none" font-family="&quot;Arial&quot;" font-size="48px" font-style="normal" font-weight="normal" text-decoration="" line-height="53px" x="21.98333740234375" y="44">G</text><text fill="rgb(39, 78, 19)" stroke="none" font-family="&quot;Arial&quot;" font-size="48px" font-style="normal" font-weight="normal" text-decoration="" line-height="53px" x="58.98333740234375" y="44">'</text></g><g><g/></g></g><g transform="translate(0,0) matrix(1,0,0,1,620,130)"><g><g transform="translate(0,0) scale(1,0.75)"><g><path fill="#FFFFFF" stroke="none" d="M 0 0 L 100 0 Q 100 0 100 0 L 100 100 Q 100 100 100 100 L 0 100 Q 0 100 0 100 L 0 0 Q 0 0 0 0 Z"/><g transform="scale(1,1.3333333333333333)"><path fill="none" stroke="none" d="M 0 0 L 100 0 Q 100 0 100 0 L 100 75 Q 100 75 100 75 L 0 75 Q 0 75 0 75 L 0 0 Q 0 0 0 0 Z"/><path fill="none" stroke="#333333" d="M 0 0 M 0 0 L 100 0 Q 100 0 100 0 L 100 75 Q 100 75 100 75 L 0 75 Q 0 75 0 75 L 0 0 Q 0 0 0 0 Z" stroke-miterlimit="10" stroke-width="2"/></g></g></g></g></g><g transform="matrix(1,0,0,1,630,141)"><g><g><rect fill="rgb(0,0,0)" stroke="none" x="0" y="0" width="81" height="53" fill-opacity="0"/></g></g><g><g><rect fill="rgb(0,0,0)" stroke="none" x="0" y="0" width="81" height="53" fill-opacity="0"/></g></g><g><g><rect fill="rgb(0,0,0)" stroke="none" x="15.48333740234375" y="32" width="50" height="14" fill-opacity="0"/></g></g><g><g><rect fill="rgb(0,0,0)" stroke="none" x="15.48333740234375" y="32" width="50" height="14" fill-opacity="0"/></g></g><g><g><rect fill="rgb(0,0,0)" stroke="none" x="15.48333740234375" y="0" width="50" height="53" fill-opacity="0"/></g><text fill="rgb(39, 78, 19)" stroke="none" font-family="&quot;Arial&quot;" font-size="48px" font-style="normal" font-weight="normal" text-decoration="" line-height="53px" x="15.48333740234375" y="44">'</text><text fill="rgb(39, 78, 19)" stroke="none" font-family="&quot;Arial&quot;" font-size="48px" font-style="normal" font-weight="normal" text-decoration="" line-height="53px" x="24.48333740234375" y="44">A</text><text fill="rgb(39, 78, 19)" stroke="none" font-family="&quot;Arial&quot;" font-size="48px" font-style="normal" font-weight="normal" text-decoration="" line-height="53px" x="56.48333740234375" y="44">'</text></g><g><g/></g></g><g transform="translate(0,0) matrix(1,0,0,1,720,130)"><g><g transform="translate(0,0) scale(1,0.75)"><g><path fill="#FFFFFF" stroke="none" d="M 0 0 L 100 0 Q 100 0 100 0 L 100 100 Q 100 100 100 100 L 0 100 Q 0 100 0 100 L 0 0 Q 0 0 0 0 Z"/><g transform="scale(1,1.3333333333333333)"><path fill="none" stroke="none" d="M 0 0 L 100 0 Q 100 0 100 0 L 100 75 Q 100 75 100 75 L 0 75 Q 0 75 0 75 L 0 0 Q 0 0 0 0 Z"/><path fill="none" stroke="#333333" d="M 0 0 M 0 0 L 100 0 Q 100 0 100 0 L 100 75 Q 100 75 100 75 L 0 75 Q 0 75 0 75 L 0 0 Q 0 0 0 0 Z" stroke-miterlimit="10" stroke-width="2"/></g></g></g></g></g><g transform="matrix(1,0,0,1,730,141)"><g><g><rect fill="rgb(0,0,0)" stroke="none" x="0" y="0" width="81" height="53" fill-opacity="0"/></g></g><g><g><rect fill="rgb(0,0,0)" stroke="none" x="0" y="0" width="81" height="53" fill-opacity="0"/></g></g><g><g><rect fill="rgb(0,0,0)" stroke="none" x="13.98333740234375" y="32" width="53" height="14" fill-opacity="0"/></g></g><g><g><rect fill="rgb(0,0,0)" stroke="none" x="13.98333740234375" y="32" width="53" height="14" fill-opacity="0"/></g></g><g><g><rect fill="rgb(0,0,0)" stroke="none" x="13.98333740234375" y="0" width="53" height="53" fill-opacity="0"/></g><text fill="rgb(39, 78, 19)" stroke="none" font-family="&quot;Arial&quot;" font-size="48px" font-style="normal" font-weight="normal" text-decoration="" line-height="53px" x="13.98333740234375" y="44">'</text><text fill="rgb(39, 78, 19)" stroke="none" font-family="&quot;Arial&quot;" font-size="48px" font-style="normal" font-weight="normal" text-decoration="" line-height="53px" x="22.98333740234375" y="44">C</text><text fill="rgb(39, 78, 19)" stroke="none" font-family="&quot;Arial&quot;" font-size="48px" font-style="normal" font-weight="normal" text-decoration="" line-height="53px" x="57.98333740234375" y="44">'</text></g><g><g/></g></g><g transform="matrix(1,0,0,1,52,77)"><g><g><rect fill="rgb(0,0,0)" stroke="none" x="0" y="0" width="797" height="53" fill-opacity="0"/></g></g><g><g><rect fill="rgb(0,0,0)" stroke="none" x="0" y="0" width="797" height="53" fill-opacity="0"/></g></g><g><g><rect fill="rgb(0,0,0)" stroke="none" x="0" y="32" width="733" height="14" fill-opacity="0"/></g></g><g><g><rect fill="rgb(0,0,0)" stroke="none" x="0" y="32" width="733" height="14" fill-opacity="0"/></g></g><g><g><rect fill="rgb(0,0,0)" stroke="none" x="0" y="0" width="733" height="53" fill-opacity="0"/></g><text fill="rgb(0, 0, 0)" stroke="none" font-family="&quot;Arial&quot;" font-size="48px" font-style="normal" font-weight="normal" text-decoration="" line-height="53px" x="26" y="44">index</text><text fill="rgb(0, 0, 0)" stroke="none" font-family="&quot;Arial&quot;" font-size="48px" font-style="normal" font-weight="normal" text-decoration="" line-height="53px" x="142" y="44">:</text><text fill="rgb(0, 0, 0)" stroke="none" font-family="&quot;Arial&quot;" font-size="48px" font-style="normal" font-weight="normal" text-decoration="" line-height="53px" x="207" y="44">0</text><text fill="rgb(0, 0, 0)" stroke="none" font-family="&quot;Arial&quot;" font-size="48px" font-style="normal" font-weight="normal" text-decoration="" line-height="53px" x="312" y="44">1</text><text fill="rgb(0, 0, 0)" stroke="none" font-family="&quot;Arial&quot;" font-size="48px" font-style="normal" font-weight="normal" text-decoration="" line-height="53px" x="404" y="44">2</text><text fill="rgb(0, 0, 0)" stroke="none" font-family="&quot;Arial&quot;" font-size="48px" font-style="normal" font-weight="normal" text-decoration="" line-height="53px" x="509" y="44">3</text><text fill="rgb(0, 0, 0)" stroke="none" font-family="&quot;Arial&quot;" font-size="48px" font-style="normal" font-weight="normal" text-decoration="" line-height="53px" x="601" y="44">4</text><text fill="rgb(0, 0, 0)" stroke="none" font-family="&quot;Arial&quot;" font-size="48px" font-style="normal" font-weight="normal" text-decoration="" line-height="53px" x="706" y="44">5</text></g><g><g/></g></g></g></svg>